/* XPM */
static const char * carto_weights_xpm[] = {
"32 32 79 1",
" 	c #FFFFFF",
".	c #202020",
"+	c #000000",
"@	c #CFCFCF",
"#	c #C3C3C3",
"$	c #DBDBDB",
"%	c #212121",
"&	c #626262",
"*	c #8F8F8F",
"=	c #848484",
"-	c #050505",
";	c #9A9A9A",
">	c #636363",
",	c #A4A4A4",
"'	c #4E4E4E",
")	c #444444",
"!	c #656565",
"~	c #595959",
"{	c #4F4F4F",
"]	c #A6A6A6",
"^	c #E6E6E6",
"/	c #111111",
"(	c #FDFDFD",
"_	c #FAFAFA",
":	c #0A0A0A",
"<	c #020202",
"[	c #E0E0E0",
"}	c #030303",
"|	c #191919",
"1	c #E8E8E8",
"2	c #282828",
"3	c #CDCDCD",
"4	c #C6C6C6",
"5	c #303030",
"6	c #353535",
"7	c #D6D6D6",
"8	c #2B2B2B",
"9	c #6A6A6A",
"0	c #8C8C8C",
"a	c #868686",
"b	c #717171",
"c	c #757575",
"d	c #959595",
"e	c #6D6D6D",
"f	c #ADADAD",
"g	c #4C4C4C",
"h	c #474747",
"i	c #B2B2B2",
"j	c #B5B5B5",
"k	c #545454",
"l	c #B0B0B0",
"m	c #EDEDED",
"n	c #0F0F0F",
"o	c #F8F8F8",
"p	c #0C0C0C",
"q	c #F0F0F0",
"r	c #F2F2F2",
"s	c #040404",
"t	c #141414",
"u	c #FCFCFC",
"v	c #EFEFEF",
"w	c #313131",
"x	c #939393",
"y	c #343434",
"z	c #363636",
"A	c #A1A1A1",
"B	c #737373",
"C	c #1B1B1B",
"D	c #767676",
"E	c #242424",
"F	c #777777",
"G	c #B6B6B6",
"H	c #BABABA",
"I	c #F3F3F3",
"J	c #060606",
"K	c #F6F6F6",
"L	c #3A3A3A",
"M	c #373737",
"N	c #3E3E3E",
"                                ",
"                                ",
"                                ",
"                                ",
"                                ",
"                                ",
"                                ",
"                                ",
"                                ",
"           .+@   #+++$   @+%    ",
"           &+*   =+-+;   *+>    ",
"           ,+'   )+!+~   {+]    ",
"           ^+/( _:<[}|  (/+1    ",
"            2+3 4+5 6+7 @+8     ",
"            9+0 a+b c+d *+e     ",
"            f+g h+i j+k {+l     ",
"            m<nop}q rstu/}v     ",
"             w+x+y   z+A+6      ",
"             B+C+c   D+E+F      ",
"             j+++G   G+++H      ",
"             Is+sI   rs+JK      ",
"              L+M     M+N       ",
"                                ",
"                                ",
"                                ",
"                                ",
"                                ",
"                                ",
"                                ",
"                                ",
"                                ",
"                                "};
