/* XPM */
static const char * carto_new_xpm[] = {
"32 32 29 1",
" 	c #FFFFFF",
".	c #000000",
"+	c #747474",
"@	c #050505",
"#	c #D8D8D8",
"$	c #474747",
"%	c #494949",
"&	c #B0B0B0",
"*	c #D7D7D7",
"=	c #040404",
"-	c #212121",
";	c #F7F7F7",
">	c #6F6F6F",
",	c #828282",
"'	c #EEEEEE",
")	c #131313",
"!	c #0A0A0A",
"~	c #E1E1E1",
"{	c #959595",
"]	c #545454",
"^	c #FCFCFC",
"/	c #2C2C2C",
"(	c #BDBDBD",
"_	c #BCBCBC",
":	c #2A2A2A",
"<	c #4F4F4F",
"[	c #DBDBDB",
"}	c #060606",
"|	c #757575",
"                                ",
"                                ",
"                                ",
"                                ",
"                                ",
"                                ",
"                                ",
"                                ",
"                                ",
"                                ",
"           ..+     ..           ",
"           ..@#    ..           ",
"           ...$    ..           ",
"           ..%.&   ..           ",
"           ..*=-;  ..           ",
"           .. >.,  ..           ",
"           .. ')!~ ..           ",
"           ..  {.] ..           ",
"           ..  ^/.(..           ",
"           ..   _.:..           ",
"           ..    <...           ",
"           ..    [}..           ",
"           ..     |..           ",
"                                ",
"                                ",
"                                ",
"                                ",
"                                ",
"                                ",
"                                ",
"                                ",
"                                "};
